# xmcd
#
# Track frame offsets:
#	150
#	15240
#	36295
#	50580
#	64892
#	81932
#	96995
#	112590
#	130847
#	144375
#	157422
#	169792
#	182627
#
# Disc length: 2709 seconds
# Revision: 6
# Processed by: cddbd v1.5.2PL0 Copyright (c) Steve Scherf et al.
# Submitted via: dBpowerAMP V12.0
#
DISCID=ab0a930d
DTITLE=Alison Krauss and Union Station - New Favorite
DYEAR=2001
DGENRE=Country
TTITLE0=Let Me Touch You for Awhile
TTITLE1=The Boy Who Wouldn't Hoe Corn
TTITLE2=The Lucky One
TTITLE3=Choctaw Hayride
TTITLE4=Crazy Faith
TTITLE5=Momma Cried
TTITLE6=I'm Gone
TTITLE7=Daylight
TTITLE8=Bright Sunny South
TTITLE9=Stars
TTITLE10=It All Comes Down to You
TTITLE11=Take Me for Longing
TTITLE12=New Favorite
EXTD=
EXTT0=
EXTT1=
EXTT2=
EXTT3=
EXTT4=
EXTT5=
EXTT6=
EXTT7=
EXTT8=
EXTT9=
EXTT10=
EXTT11=
EXTT12=
PLAYORDER=
